<svg xmlns="http://www.w3.org/2000/svg" viewBox="0 0 396.5 396.5">
  <g fill="#fff">
    <path d="M304.4 331h-43.2c-1.6 0-2.8-1.4-2.8-3v-10.5c0-1.5-1.3-2.8-3-2.8H195c-1.4 0-2.7 1.3-2.7 2.8V328c0 1.6-1.3 3-2.8 3H157c-1.7 0-3 1.2-3 2.7V346c0 1.5 1.3 2.7 3 2.7h147.4c1.6 0 3-1.2 3-2.8v-13c0-1.7-1.4-3-3-3zM377 46.4H68.6C58 46.4 49.2 55 49.2 65.8v50.8c0 6.7-.5 7.7 4 7.7H61c3.7 0 3-1 3-7.8V65.8c0-2.5 2-4.7 4.6-4.7H377c2.6 0 4.8 3 4.8 5v190h-220s-7.7 0-7.7 10v24c0 10 8 10 8 10h215c11 0 20-8.2 20-19V66c0-10.7-8.4-19.4-19.2-19.4zM222.8 282.8c-4.8 0-8.7-4-8.7-8.8s4-8.7 9-8.7 9 4 9 8.7-4 8.8-9 8.8z"/>
    <path d="M124 141.6H12.7c-7 0-12.6 5.7-12.6 12.6v183.4c0 7 6 12.4 13 12.4h111c7 0 13-5.3 13-12.2V154.2c0-7-5.5-12.6-12.4-12.6zm-69.4 12.8H82c1.4 0 2.5 1 2.5 2.4 0 1.3-1 2.4-2.4 2.4H55c-1.3 0-2.4-1-2.4-2.4 0-1.3 1-2.4 2.4-2.4zm13.6 187c-3.6 0-6.5-3-6.5-6.6s3-6.5 6.5-6.5 6.5 3 6.5 6.5-3 6.5-6.5 6.5zM126 322c0 1.7-1.4 3-3 3H13.7c-1.7 0-3-1.3-3-3V169.8c0-1.7 1.3-3 3-3h109c1.8 0 3 1.3 3 3v152.4z"/>
  </g>
</svg>