<svg xmlns="http://www.w3.org/2000/svg" viewBox="0 0 730.4 547.5">
	  <path fill="#cd4a9c" d="M516.4 413.7c-2.3-1.6-2-7 5.7-23.6 3-6 10-17 22-28 2 5 2 9 2 13 0 26-18 36-29 40zM419 436c-3.2 1.6-6 2.6-7.4 1.8-1-.6 1.3-2.7 1.3-2.7l22-24 12-16v2c0 21-20 34-29 40zm-127-60.6c-7.3 18-22.6 63.6-32 61-8-2-13-36.7-1.6-71 5.7-17 17.8-37.7 25-45.7 11.5-12.8 24-17 27.2-11.8 4 6-14 56-18.6 67zM139 479.7c-21 23-50.5 31.7-63 24.3-13.7-7.8-8.3-41.6 17.5-66 15.7-14.8 36-28.5 49.5-37l13-7.8 1.5-.8 3.2-2c9.4 34.7.3 65.2-21.8 89.3zm489.6-165c-25.6 0-47.7 6.2-66.2 15.4-6.8-13-13.7-25-14.8-34-1.3-10-3-16-1.3-29 1.6-12 8.8-29 8.7-31 0-1-1.6-7-16.4-7-14.7 0-27.3 3-28.8 7-1.4 4-4.3 13-6 22-2.6 14-29.4 61-44.7 86-4-9-9-18-10-25-1-10-3-16-1-29s9-29 9-31c0-1-1-7-16-7-14 0-27 3-28 7s-3 13-6 22-39 88-48 109c-5 11-9 19-12 25v1l-4 8c-2 4-4 7-5 7s-2-9.2 0-22.3c6-27.7 18-70.6 18-72 0-1 3-8.3-8-12.3-10-4-14 2.6-15 2.6s-2 2-2 2 12-48.4-22-48.4c-21 0-50 23-64 44L194 349l-24 12-1.5-2c-40.8-43.3-116.4-74-113-133 1-21 8.5-77 145-145C312 25.4 401.5 40.7 417 74.7c22 48.5-48 138.6-164 151.6-44.2 5-67.5-12-73.3-18.5-6-6.7-7-7-9.3-5.8-3.7 2-1.3 8 0 11.4 3.5 9 17.7 25 42 33 21.3 7 73.2 10.8 136-13.4 70.2-27 125-102.8 109-166-16.4-64.3-123-85.5-224-49.6-60 21.3-125 54.8-171.8 98.5C6 168-3 213 .6 232c13 67.3 105.7 111 142.8 143.5l-5 2.8c-18.7 9.2-89.3 46-107 85.2-20 44.2 3.2 76 18.6 80.3 47.6 13.2 96.5-10.6 122.8-49.8 26.2-39 23-90 11-113.4l-.5-1 14.5-8.5 26.8-15c-4.5 13-7.8 28-9.5 49-2 25 9 58 22 71 6 6 13 6 18 6 16 0 23-13 31-28 10-19 18-41 18-41s-11 59 18 59c11 0 22-14 27-21l1-1 2-2c4-7.2 14-24.2 28-52.2 19-36 36-81 36-81s2 11 7 29.4c3 10.5 10 22.4 16 34l-7 9c-3 4.8-7 9.7-11 14-14.2 17.8-32 37-34 43-2.6 7-2 12 3 16 4 3 11 3 18 3 13-1 22.6-4.3 27-6.2 7-2.6 15.6-6.6 23-12.3 14.7-10.4 23-25.4 22.5-45-.7-11-4-22-8.6-32 1-2 2.4-4 4-6 22.2-33 40-69 40-69s1.3 11 7 29c2.4 9.4 8 19.6 13 29.5-21.5 17-34.6 37-39 50-8.6 24.2-2 35.2 10.4 38 5.7 1 13.6-1.8 19.6-4 7-2.7 16-6.8 24.4-13 14-10.4 28-25 27-45-.5-9-3-18-6.3-26.7 18-7.3 41.4-11.4 71-8 63.6 7.5 76 47 73.7 63.7-2.2 16.7-16 25.8-20 28.6-5 3-6 4-5.7 6 1 3 3 3 6.7 2 5-.6 33.4-13.2 34.6-44 2-39-35.5-81.5-101.5-81"/>
</svg>